<svg width="47" height="47" viewBox="0 0 47 47" fill="none" xmlns="http://www.w3.org/2000/svg">
<path d="M19.261 23.5037L1.37869 5.62133C0.207105 4.44977 0.207102 2.55026 1.37869 1.37869C1.37869 1.37869 1.37869 1.37869 1.37869 1.37869M19.261 23.5037L5.26777 1.73224C4.29147 0.755919 2.70854 0.755919 1.73224 1.73224L1.37869 1.37869M19.261 23.5037L1.37874 41.3859L1.37871 41.3859C0.207164 42.5577 0.207164 44.457 1.37871 45.6287L1.37875 45.6288C2.55031 46.8003 4.4498 46.8003 5.62136 45.6288L5.26782 45.2752L5.62137 45.6288L23.5036 27.7463L41.3861 45.6288C42.5576 46.8003 44.4572 46.8003 45.6287 45.6288L45.6287 45.6287C46.8002 44.457 46.8002 42.5577 45.6287 41.3862L27.7463 23.5037L45.6287 5.62132L45.3125 5.3051L45.6287 5.62131C46.8002 4.44975 46.8002 2.55026 45.6287 1.3787C44.4572 0.207099 42.5576 0.207099 41.3861 1.3787L23.5036 19.2611L5.62133 1.37869M19.261 23.5037L5.62133 1.37869M1.37869 1.37869C2.55026 0.207102 4.44977 0.207105 5.62133 1.37869M1.37869 1.37869L5.62133 1.37869" fill="#EC5564" stroke="#EC5564"/>
</svg>
