<svg width="1280" height="676" viewBox="0 0 1280 676" fill="none" xmlns="http://www.w3.org/2000/svg">
<rect x="1" y="319" width="1293" height="368" fill="#ABC261"/>
<path d="M420.865 250.393C408.376 259.454 398.342 271.26 391.841 284.534C387.07 294.293 384.175 304.896 383.304 315.638C371.264 326.6 365.038 341.737 365.857 357.093C348.675 369.723 337.915 387.785 335.564 408.013C333.196 428.255 339.552 448.263 353.441 464.319C361.608 473.761 371.754 481.183 383.287 486.211C384.743 496.014 389.046 505.411 395.903 513.338C405.506 524.44 419.116 531.558 433.732 533.746C435.906 540.544 439.528 546.978 444.499 552.724C445.125 553.448 445.773 554.164 446.442 554.856C448.532 568.423 454.508 581.159 463.965 592.092C485.488 616.973 520.946 626.991 552.887 618.601C574.259 633.473 604.555 633.997 626.312 618.212C629.104 616.187 631.679 613.945 634.003 611.519C644.351 613.611 655.1 613.159 665.139 610.193C686.532 629.073 720.279 631.181 743.934 614.019C756.123 605.177 763.763 592.516 765.843 578.863C776.705 576.239 786.963 571.58 795.84 565.14C810.728 554.339 821.147 538.969 825.149 521.895C828.271 508.616 827.434 494.725 822.86 481.836C826.215 474.611 827.883 466.723 827.65 458.807C827.309 446.709 822.753 435.269 814.499 425.726C809.829 420.327 804.241 415.848 797.943 412.416C796.35 403.041 792.128 394.151 785.494 386.481C779 378.974 770.672 373.264 761.379 369.685C761.371 369.398 761.375 369.103 761.366 368.818C761.097 358.739 757.323 349.194 750.447 341.244C745.568 335.604 739.434 331.185 732.592 328.182C732.484 326.098 732.266 324.003 731.905 321.928C730.254 312.232 725.822 303.009 719.13 295.272C710.643 285.46 699.223 278.616 686.069 275.458C682.002 274.486 677.849 273.902 673.672 273.703C670.464 262.945 664.902 252.782 657.24 243.924C631.867 214.591 588.737 204.838 552.547 218.845C545.042 215.951 536.895 214.434 528.749 214.485C515.374 214.572 502.774 218.62 492.317 226.206C490.382 227.61 488.534 229.114 486.806 230.732C477.443 230.39 468.114 231.263 458.948 233.314C444.982 236.438 432.172 242.191 420.865 250.393Z" fill="#ABC261"/>
<path opacity="0.2" d="M420.865 250.393C408.376 259.454 398.342 271.259 391.841 284.534C387.07 294.292 384.175 304.895 383.304 315.638L388.367 311.965C394.877 298.7 404.912 286.896 417.396 277.839C428.709 269.631 441.518 263.878 455.475 260.743C464.631 258.682 473.963 257.824 483.342 258.174C485.059 256.563 486.895 255.048 488.854 253.626C499.298 246.05 511.897 242.001 525.273 241.915C533.416 241.883 541.554 243.388 549.082 246.286C585.26 232.267 628.401 242.031 653.775 271.365C661.437 280.223 666.999 290.386 670.185 301.141C674.364 301.341 678.527 301.915 682.606 302.899C695.74 306.035 707.17 312.89 715.662 322.707C722.359 330.45 726.78 339.661 728.437 349.363C728.779 351.442 729.01 353.528 729.111 355.626C735.965 358.619 742.099 363.038 746.973 368.673C753.855 376.629 757.621 386.168 757.884 396.262C757.892 396.548 757.9 396.834 757.904 397.114C767.197 400.692 775.517 406.418 782.011 413.925C788.64 421.589 792.881 430.476 794.472 439.85C800.766 443.278 806.358 447.762 811.029 453.161C817.871 461.071 822.157 470.289 823.628 480.099C826.462 473.353 827.866 466.084 827.648 458.806C827.307 446.708 822.751 435.267 814.497 425.725C809.827 420.326 804.239 415.847 797.941 412.414C796.348 403.04 792.126 394.15 785.492 386.48C778.998 378.973 770.67 373.262 761.377 369.684C761.369 369.397 761.373 369.102 761.364 368.816C761.095 358.737 757.321 349.192 750.445 341.243C745.566 335.603 739.432 331.184 732.59 328.181C732.482 326.097 732.264 324.001 731.903 321.927C730.252 312.231 725.82 303.008 719.128 295.271C710.641 285.459 699.221 278.615 686.067 275.457C682 274.484 677.847 273.901 673.67 273.702C670.462 262.944 664.9 252.781 657.238 243.923C631.865 214.59 588.735 204.836 552.545 218.844C545.039 215.95 536.893 214.433 528.747 214.484C515.371 214.571 502.772 218.619 492.315 226.205C490.38 227.609 488.532 229.113 486.804 230.731C477.441 230.388 468.112 231.262 458.946 233.313C444.982 236.438 432.172 242.19 420.865 250.393Z" fill="white"/>
<path d="M173.882 217.519C163.748 224.376 155.274 233.328 149.373 243.408C145.041 250.817 142.071 258.875 140.625 267.044C130.692 275.348 124.863 286.845 124.362 298.529C110.406 308.088 100.925 321.797 97.6635 337.177C94.3879 352.568 97.7463 367.806 107.107 380.06C112.611 387.265 119.765 392.94 128.145 396.797C128.532 404.259 131.109 411.42 135.73 417.469C142.202 425.941 152.005 431.394 162.93 433.101C164.083 438.278 166.36 443.182 169.71 447.568C170.132 448.12 170.571 448.666 171.028 449.195C171.621 459.521 175.223 469.226 181.597 477.57C196.103 496.558 222.264 504.279 247.103 497.988C262.226 509.361 285.166 509.846 302.822 497.9C305.088 496.367 307.204 494.669 309.145 492.831C316.84 494.451 325.026 494.138 332.857 491.91C347.703 506.332 373.144 508.032 392.34 495.045C402.231 488.353 408.952 478.744 411.527 468.363C419.958 466.398 428.078 462.883 435.282 458.01C447.364 449.835 456.389 438.173 460.673 425.196C464.011 415.104 464.391 404.535 461.865 394.718C464.938 389.231 466.779 383.236 467.181 377.213C467.806 368.009 465.187 359.294 459.624 352.011C456.477 347.891 452.566 344.468 448.04 341.839C447.517 334.704 444.965 327.929 440.493 322.076C436.117 316.346 430.218 311.979 423.431 309.23C423.445 309.012 423.47 308.788 423.484 308.57C424.017 300.903 421.852 293.631 417.218 287.564C413.93 283.26 409.6 279.881 404.63 277.577C404.7 275.992 404.688 274.397 404.566 272.818C404.023 265.438 401.336 258.409 396.825 252.505C391.105 245.017 382.944 239.778 373.198 237.338C370.184 236.587 367.077 236.132 363.923 235.969C362.277 227.776 358.801 220.029 353.637 213.269C336.536 190.884 304.537 183.342 276.064 193.895C270.583 191.672 264.515 190.495 258.333 190.51C248.182 190.538 238.329 193.582 229.844 199.323C228.273 200.385 226.762 201.524 225.333 202.75C218.257 202.463 211.117 203.101 204.015 204.635C193.194 206.972 183.058 211.311 173.882 217.519Z" fill="#ABC261"/>
<path opacity="0.2" d="M173.882 217.519C163.748 224.376 155.274 233.328 149.373 243.408C145.041 250.817 142.071 258.875 140.625 267.044L144.733 264.265C150.641 254.193 159.115 245.241 169.245 238.387C178.426 232.176 188.561 227.836 199.376 225.491C206.472 223.949 213.612 223.323 220.7 223.615C222.12 222.395 223.624 221.247 225.213 220.172C233.689 214.438 243.54 211.394 253.692 211.366C259.87 211.365 265.933 212.533 271.43 214.759C299.895 204.198 331.902 211.747 349.003 234.134C354.168 240.894 357.643 248.64 359.274 256.831C362.429 256.995 365.544 257.443 368.566 258.203C378.298 260.626 386.466 265.873 392.189 273.365C396.703 279.274 399.383 286.293 399.93 293.678C400.038 295.26 400.061 296.848 399.984 298.444C404.964 300.741 409.294 304.12 412.578 308.42C417.217 314.491 419.376 321.759 418.837 329.437C418.822 329.655 418.808 329.873 418.79 330.086C425.577 332.834 431.469 337.213 435.846 342.942C440.314 348.791 442.881 355.563 443.402 362.699C447.925 365.324 451.839 368.751 454.987 372.871C459.599 378.908 462.175 385.932 462.574 393.399C465.217 388.275 466.813 382.75 467.179 377.213C467.805 368.009 465.186 359.293 459.623 352.011C456.475 347.891 452.565 344.468 448.039 341.838C447.515 334.703 444.963 327.928 440.492 322.075C436.115 316.346 430.216 311.978 423.429 309.23C423.444 309.012 423.469 308.787 423.483 308.57C424.015 300.902 421.851 293.63 417.217 287.564C413.928 283.26 409.599 279.881 404.629 277.577C404.699 275.991 404.687 274.397 404.565 272.817C404.021 265.437 401.334 258.409 396.824 252.504C391.104 245.016 382.942 239.778 373.197 237.338C370.183 236.587 367.075 236.131 363.922 235.968C362.275 227.775 358.799 220.028 353.635 213.269C336.535 190.883 304.535 183.341 276.063 193.894C270.582 191.671 264.514 190.494 258.331 190.51C248.18 190.538 238.328 193.581 229.843 199.322C228.272 200.385 226.761 201.523 225.332 202.75C218.255 202.463 211.116 203.101 204.014 204.635C193.194 206.972 183.058 211.312 173.882 217.519Z" fill="white"/>
<path d="M645.064 288.852C635.72 300.671 629.55 314.524 627.216 328.914C625.508 339.491 625.856 350.416 628.193 360.973C619.843 374.511 618.324 390.626 623.652 405.206C610.845 421.624 605.827 441.68 609.543 461.735C613.247 481.808 625.28 499.493 643.398 511.506C654.05 518.57 666.012 523.199 678.601 525.18C682.9 534.256 689.82 542.236 698.765 548.167C711.291 556.473 726.496 559.951 741.213 558.434C745.316 564.439 750.705 569.734 757.189 574.034C758.006 574.575 758.841 575.103 759.69 575.604C765.712 588.146 775.23 598.925 787.566 607.105C815.64 625.721 852.736 626.574 881.004 610.578C905.974 619.596 935.293 612.589 951.572 591.999C953.661 589.357 955.477 586.561 956.997 583.649C967.577 583.097 977.791 579.997 986.578 574.653C1012.75 587.524 1045.86 581.186 1063.56 558.801C1072.68 547.266 1076.29 533.185 1074.26 519.525C1083.94 514.306 1092.44 507.278 1099.08 498.878C1110.22 484.788 1115.71 467.41 1114.51 449.981C1113.59 436.424 1108.68 423.259 1100.47 411.986C1101.56 404.198 1100.83 396.192 1098.27 388.629C1094.36 377.067 1086.6 367.183 1075.83 360.044C1069.74 356.004 1063.03 353.078 1055.96 351.335C1051.65 342.706 1044.96 335.194 1036.31 329.456C1027.84 323.839 1018.13 320.406 1008.13 319.265C1008.03 318.992 1007.95 318.707 1007.86 318.434C1004.62 308.798 998.164 300.545 989.195 294.597C982.831 290.377 975.62 287.644 968.145 286.45C967.425 284.47 966.596 282.507 965.635 280.599C961.179 271.675 954.187 263.895 945.457 258.106C934.386 250.765 921.37 247.008 907.774 247.229C903.571 247.301 899.4 247.769 895.321 248.613C889.052 239.052 880.693 230.648 870.699 224.02C837.602 202.074 793.199 203.377 762.502 225.835C754.421 224.909 746.13 225.469 738.303 227.537C725.453 230.937 714.521 237.958 706.697 247.853C705.249 249.684 703.915 251.59 702.73 253.576C693.615 255.568 684.893 258.722 676.676 262.969C664.154 269.439 653.524 278.152 645.064 288.852Z" fill="#ABC261"/>
<path opacity="0.2" d="M645.064 288.852C635.719 300.671 629.55 314.523 627.215 328.914C625.507 339.491 625.856 350.416 628.193 360.973L631.981 356.182C634.326 341.799 640.497 327.947 649.837 316.133C658.302 305.427 668.931 296.713 681.44 290.235C689.646 285.981 698.375 282.841 707.507 280.852C708.684 278.876 710.004 276.962 711.469 275.108C719.284 265.225 730.215 258.204 743.066 254.805C750.895 252.755 759.175 252.186 767.278 253.109C797.961 230.645 842.377 229.348 875.475 251.296C885.47 257.923 893.829 266.327 900.075 275.891C904.157 275.048 908.334 274.568 912.552 274.504C926.122 274.266 939.152 278.032 950.228 285.377C958.965 291.17 965.943 298.941 970.406 307.87C971.351 309.786 972.189 311.737 972.907 313.732C980.389 314.914 987.601 317.647 993.959 321.863C1002.94 327.815 1009.38 336.065 1012.62 345.716C1012.71 345.99 1012.8 346.263 1012.89 346.532C1022.89 347.673 1032.6 351.121 1041.07 356.738C1049.71 362.472 1056.42 369.976 1060.73 378.606C1067.8 380.346 1074.51 383.275 1080.6 387.314C1089.52 393.233 1096.37 401.044 1100.69 410.123C1101.42 402.927 1100.63 395.581 1098.27 388.629C1094.36 377.067 1086.59 367.183 1075.83 360.043C1069.73 356.004 1063.03 353.078 1055.95 351.334C1051.65 342.705 1044.96 335.194 1036.3 329.455C1027.83 323.838 1018.13 320.406 1008.12 319.265C1008.03 318.991 1007.95 318.706 1007.85 318.433C1004.62 308.797 998.162 300.544 989.192 294.597C982.828 290.377 975.617 287.644 968.143 286.449C967.423 284.47 966.593 282.507 965.632 280.599C961.177 271.674 954.184 263.894 945.455 258.106C934.384 250.765 921.367 247.007 907.771 247.228C903.568 247.301 899.398 247.769 895.318 248.613C889.05 239.052 880.691 230.647 870.696 224.02C837.599 202.073 793.197 203.377 762.5 225.834C754.419 224.909 746.128 225.468 738.301 227.537C725.451 230.936 714.518 237.957 706.695 247.852C705.247 249.684 703.913 251.59 702.727 253.576C693.613 255.568 684.89 258.722 676.673 262.968C664.154 269.439 653.523 278.152 645.064 288.852Z" fill="white"/>
<path d="M948.367 320.139C943.676 340.313 942.588 361.562 945.214 381.596C947.151 396.316 951.1 410.462 956.76 423.131C953.557 445.06 957.507 466.946 967.261 483.388C960.905 511.326 962.937 540.13 973.023 564.557C983.104 589.014 1000.07 606.167 1020.76 612.838C1032.93 616.76 1045.5 616.835 1057.76 613.124C1064.74 622.868 1073.77 629.861 1083.99 633.154C1098.29 637.766 1113.47 634.706 1126.53 625.343C1132.31 631.16 1139.04 635.401 1146.44 637.788C1147.38 638.089 1148.32 638.363 1149.27 638.593C1158.99 652.017 1171.34 661.377 1185.43 665.919C1217.5 676.256 1251.98 658.788 1272.74 623.657C1298.75 622.966 1323.46 599.092 1331.63 563.946C1332.68 559.436 1333.42 554.861 1333.86 550.282C1343.43 544.258 1351.82 535.076 1358.14 523.668C1386.55 527.425 1414.98 502.529 1423.86 464.318C1428.44 444.629 1427.09 424.36 1420.68 407.473C1427.88 395.781 1433.38 382.311 1436.71 367.972C1442.3 343.922 1441.59 318.392 1434.7 296.144C1429.35 278.835 1420.45 264.039 1409.13 253.376C1407.56 242.62 1404.23 232.489 1399.35 223.86C1391.91 210.66 1381.47 201.596 1369.17 197.632C1362.21 195.389 1355.06 194.912 1347.96 196.173C1341.12 187.018 1332.46 180.524 1322.58 177.338C1312.9 174.219 1302.81 174.583 1293.21 178.099C1293.03 177.787 1292.86 177.455 1292.69 177.144C1286.5 166.135 1277.81 158.551 1267.56 155.248C1260.29 152.905 1252.74 152.935 1245.45 155.114C1244.13 152.881 1242.71 150.723 1241.19 148.703C1234.12 139.237 1225.09 132.542 1215.12 129.328C1202.48 125.252 1189.23 126.849 1176.76 133.95C1172.91 136.151 1169.22 138.854 1165.74 142.005C1156.79 132.612 1146.29 125.783 1134.87 122.103C1097.07 109.917 1056.57 133.873 1035.72 178.692C1027.96 181.528 1020.5 186.415 1013.97 193.048C1003.25 203.943 995.506 218.623 991.579 235.514C990.852 238.64 990.255 241.807 989.821 245.005C982.079 252.182 975.085 260.687 968.919 270.371C959.522 285.126 952.614 301.874 948.367 320.139Z" fill="#ABC261"/>
<path opacity="0.2" d="M948.367 320.139C943.676 340.313 942.588 361.562 945.214 381.596C947.151 396.316 951.1 410.462 956.76 423.131L958.662 414.952C956.049 394.923 957.138 373.673 961.827 353.508C966.076 335.233 972.983 318.485 982.365 303.725C988.518 294.037 995.524 285.548 1003.28 278.366C1003.71 275.185 1004.29 272.015 1005.03 268.851C1008.95 251.98 1016.7 237.299 1027.42 226.405C1033.96 219.796 1041.4 214.902 1049.18 212.052C1070.01 167.231 1110.53 143.277 1148.34 155.464C1159.75 159.144 1170.25 165.973 1179.18 175.379C1182.67 172.228 1186.36 169.507 1190.23 167.31C1202.66 160.199 1215.92 158.607 1228.57 162.685C1238.55 165.902 1247.57 172.592 1254.65 182.06C1256.15 184.099 1257.58 186.237 1258.9 188.491C1266.19 186.292 1273.75 186.262 1281.01 188.602C1291.26 191.908 1299.95 199.492 1306.13 210.522C1306.31 210.835 1306.49 211.146 1306.66 211.455C1316.26 207.938 1326.35 207.597 1336.02 210.716C1345.9 213.9 1354.58 220.375 1361.41 229.532C1368.51 228.269 1375.67 228.747 1382.63 230.99C1392.82 234.276 1401.73 241.083 1408.72 250.821C1407.01 241.02 1403.84 231.791 1399.35 223.861C1391.91 210.661 1381.47 201.597 1369.17 197.633C1362.21 195.39 1355.06 194.912 1347.96 196.173C1341.12 187.019 1332.46 180.525 1322.57 177.339C1312.9 174.22 1302.81 174.583 1293.21 178.1C1293.03 177.787 1292.86 177.456 1292.68 177.144C1286.5 166.136 1277.81 158.551 1267.56 155.249C1260.29 152.905 1252.74 152.936 1245.45 155.115C1244.13 152.882 1242.71 150.724 1241.19 148.704C1234.12 139.238 1225.09 132.543 1215.12 129.329C1202.47 125.253 1189.22 126.849 1176.76 133.951C1172.91 136.152 1169.22 138.855 1165.74 142.005C1156.79 132.613 1146.29 125.784 1134.87 122.104C1097.07 109.918 1056.56 133.874 1035.72 178.692C1027.96 181.528 1020.5 186.415 1013.97 193.049C1003.25 203.943 995.504 218.624 991.577 235.515C990.85 238.641 990.253 241.808 989.819 245.005C982.077 252.183 975.082 260.688 968.916 270.371C959.522 285.126 952.614 301.874 948.367 320.139Z" fill="white"/>
<path d="M188.04 470.474C176.949 478.602 163.523 483.923 149.212 485.866C138.694 487.288 127.642 486.898 116.782 484.762C103.868 492.003 87.7454 493.215 72.5619 488.418C57.1389 499.557 37.3524 503.817 16.7885 500.396C-3.79265 496.985 -22.7065 486.266 -36.4409 470.24C-44.5164 460.817 -50.2523 450.261 -53.3723 439.174C-62.9123 435.323 -71.5791 429.176 -78.3597 421.264C-87.8555 410.183 -92.7185 396.783 -92.4992 383.851C-98.9232 380.196 -104.746 375.416 -109.661 369.681C-110.28 368.959 -110.887 368.22 -111.468 367.469C-124.658 362.077 -136.38 353.623 -145.732 342.711C-167.014 317.877 -171.179 285.245 -157.56 260.504C-168.882 238.474 -164.425 212.741 -145.104 198.581C-142.624 196.763 -139.965 195.188 -137.163 193.873C-137.549 184.572 -135.331 175.612 -130.722 167.925C-146.039 144.804 -142.595 115.732 -121.588 100.337C-110.764 92.4042 -96.8788 89.3346 -82.917 91.2279C-78.5138 82.753 -72.1808 75.3331 -64.2974 69.5557C-51.0758 59.8659 -34.0313 55.1736 -16.3415 56.3574C-2.58286 57.2705 11.137 61.6916 23.2417 69.0005C31.0007 68.0979 39.143 68.7983 47.0013 71.1112C59.0138 74.6337 69.6772 81.5409 77.8394 91.0651C82.4574 96.4538 86.0067 102.371 88.396 108.61C97.4851 112.462 105.66 118.405 112.22 126.06C118.641 133.553 122.969 142.115 125.011 150.923C125.296 151.006 125.591 151.081 125.874 151.165C135.884 154.087 144.786 159.827 151.585 167.761C156.409 173.391 159.809 179.754 161.68 186.337C163.741 186.986 165.796 187.73 167.806 188.589C177.207 192.576 185.679 198.786 192.297 206.508C200.689 216.301 205.639 227.778 206.628 239.734C206.929 243.43 206.828 247.095 206.34 250.676C216.544 256.262 225.768 263.679 233.345 272.519C258.435 301.796 261.076 340.839 241.154 367.666C242.807 374.781 242.982 382.068 241.592 388.937C239.307 400.213 233.198 409.774 223.912 416.58C222.193 417.839 220.389 418.998 218.491 420.025C217.294 428.027 214.889 435.674 211.337 442.869C205.925 453.832 198.081 463.115 188.04 470.474Z" fill="#ABC261"/>
<path opacity="0.2" d="M188.04 470.474C176.949 478.603 163.523 483.923 149.213 485.866C138.694 487.288 127.642 486.898 116.782 484.762L121.278 481.467C135.58 479.514 149.005 474.192 160.092 466.068C170.138 458.705 177.983 449.423 183.404 438.47C186.965 431.286 189.355 423.632 190.548 415.615C192.436 414.595 194.25 413.449 195.99 412.174C205.265 405.377 211.374 395.816 213.658 384.539C215.028 377.669 214.865 370.391 213.212 363.258C233.142 336.443 230.493 297.388 205.402 268.11C197.825 259.269 188.602 251.853 178.397 246.286C178.884 242.702 178.996 239.032 178.685 235.324C177.715 223.389 172.756 211.901 164.359 202.103C157.736 194.375 149.275 188.178 139.869 184.185C137.851 183.339 135.808 182.587 133.732 181.941C131.873 175.35 128.472 168.986 123.653 163.363C116.848 155.422 107.951 149.69 97.9254 146.77C97.6411 146.687 97.3574 146.603 97.0786 146.525C95.0367 137.718 90.6931 129.158 84.2717 121.665C77.7164 114.016 69.548 108.058 60.4581 104.207C58.0731 97.974 54.5202 92.0509 49.9022 86.6622C43.1357 78.7666 34.6448 72.6818 25.1012 68.8162C32.2958 68.2257 39.7776 68.9832 47.002 71.1132C59.0146 74.6357 69.678 81.543 77.8401 91.0671C82.4581 96.4558 86.0074 102.373 88.3967 108.612C97.4858 112.464 105.661 118.407 112.221 126.062C118.642 133.555 122.97 142.117 125.012 150.925C125.297 151.008 125.591 151.083 125.875 151.167C135.885 154.089 144.786 159.829 151.586 167.763C156.41 173.393 159.81 179.756 161.681 186.339C163.742 186.988 165.796 187.732 167.807 188.591C177.207 192.578 185.679 198.788 192.297 206.51C200.69 216.303 205.64 227.78 206.628 239.736C206.93 243.432 206.829 247.097 206.341 250.678C216.545 256.264 225.769 263.681 233.346 272.521C258.436 301.798 261.076 340.841 241.155 367.668C242.808 374.783 242.982 382.07 241.593 388.939C239.308 400.215 233.199 409.776 223.913 416.582C222.194 417.841 220.39 419 218.492 420.027C217.294 428.029 214.889 435.676 211.337 442.871C205.925 453.832 198.081 463.115 188.04 470.474Z" fill="white"/>
</svg>
