<?xml version="1.0" encoding="utf-8"?>
<!-- Generator: Adobe Illustrator 27.3.1, SVG Export Plug-In . SVG Version: 6.00 Build 0)  -->
<svg version="1.1" id="Lag_1" xmlns="http://www.w3.org/2000/svg" xmlns:xlink="http://www.w3.org/1999/xlink" x="0px" y="0px"
	 viewBox="0 0 1280 566.5" style="enable-background:new 0 0 1280 566.5;" xml:space="preserve">
<style type="text/css">
	.st0{fill:#97A95E;}
	.st1{opacity:0.2;fill:#FFFFFF;enable-background:new    ;}
</style>
<rect x="1" y="209.5" class="st0" width="1293" height="368"/>
<path class="st0" d="M420.9,140.9c-12.5,9.1-22.5,20.9-29,34.1c-4.8,9.8-7.7,20.4-8.5,31.1c-12,11-18.3,26.1-17.4,41.5
	c-17.2,12.6-27.9,30.7-30.3,50.9c-2.4,20.2,4,40.2,17.9,56.3c8.2,9.4,18.3,16.9,29.8,21.9c1.5,9.8,5.8,19.2,12.6,27.1
	c9.6,11.1,23.2,18.2,37.8,20.4c2.2,6.8,5.8,13.2,10.8,19c0.6,0.7,1.3,1.4,1.9,2.1c2.1,13.6,8.1,26.3,17.5,37.2
	c21.5,24.9,57,34.9,88.9,26.5c21.4,14.9,51.7,15.4,73.4-0.4c2.8-2,5.4-4.3,7.7-6.7c10.3,2.1,21.1,1.6,31.1-1.3
	c21.4,18.9,55.1,21,78.8,3.8c12.2-8.8,19.8-21.5,21.9-35.2c10.9-2.6,21.1-7.3,30-13.7c14.9-10.8,25.3-26.2,29.3-43.2
	c3.1-13.3,2.3-27.2-2.3-40.1c3.4-7.2,5-15.1,4.8-23c-0.3-12.1-4.9-23.5-13.2-33.1c-4.7-5.4-10.3-9.9-16.6-13.3
	c-1.6-9.4-5.8-18.3-12.4-25.9c-6.5-7.5-14.8-13.2-24.1-16.8c0-0.3,0-0.6,0-0.9c-0.3-10.1-4-19.6-10.9-27.6
	c-4.9-5.6-11-10.1-17.9-13.1c-0.1-2.1-0.3-4.2-0.7-6.3c-1.7-9.7-6.1-18.9-12.8-26.7c-8.5-9.8-19.9-16.7-33.1-19.8
	c-4.1-1-8.2-1.6-12.4-1.8c-3.2-10.8-8.8-20.9-16.4-29.8c-25.4-29.3-68.5-39.1-104.7-25.1c-7.5-2.9-15.7-4.4-23.8-4.4
	c-13.4,0.1-26,4.1-36.4,11.7c-1.9,1.4-3.8,2.9-5.5,4.5c-9.4-0.3-18.7,0.5-27.9,2.6C445,126.9,432.2,132.7,420.9,140.9z"/>
<path class="st1" d="M420.9,140.9c-12.5,9.1-22.5,20.9-29,34.1c-4.8,9.8-7.7,20.4-8.5,31.1l5.1-3.7c6.5-13.3,16.5-25.1,29-34.1
	c11.3-8.2,24.1-14,38.1-17.1c9.2-2.1,18.5-2.9,27.9-2.6c1.7-1.6,3.6-3.1,5.5-4.5c10.4-7.6,23-11.6,36.4-11.7
	c8.1,0,16.3,1.5,23.8,4.4c36.2-14,79.3-4.3,104.7,25.1c7.7,8.9,13.2,19,16.4,29.8c4.2,0.2,8.3,0.8,12.4,1.8
	c13.1,3.1,24.6,10,33.1,19.8c6.7,7.7,11.1,17,12.8,26.7c0.3,2.1,0.6,4.2,0.7,6.3c6.9,3,13,7.4,17.9,13c6.9,8,10.6,17.5,10.9,27.6
	c0,0.3,0,0.6,0,0.9c9.3,3.6,17.6,9.3,24.1,16.8c6.6,7.7,10.9,16.6,12.5,25.9c6.3,3.4,11.9,7.9,16.6,13.3
	c6.8,7.9,11.1,17.1,12.6,26.9c2.8-6.7,4.2-14,4-21.3c-0.3-12.1-4.9-23.5-13.2-33.1c-4.7-5.4-10.3-9.9-16.6-13.3
	c-1.6-9.4-5.8-18.3-12.4-25.9c-6.5-7.5-14.8-13.2-24.1-16.8c0-0.3,0-0.6,0-0.9c-0.3-10.1-4-19.6-10.9-27.6
	c-4.9-5.6-11-10.1-17.9-13.1c-0.1-2.1-0.3-4.2-0.7-6.3c-1.7-9.7-6.1-18.9-12.8-26.7c-8.5-9.8-19.9-16.7-33.1-19.8
	c-4.1-1-8.2-1.6-12.4-1.8c-3.2-10.8-8.8-20.9-16.4-29.8c-25.4-29.3-68.5-39.1-104.7-25.1c-7.5-2.9-15.7-4.4-23.8-4.4
	c-13.4,0.1-26,4.1-36.4,11.7c-1.9,1.4-3.8,2.9-5.5,4.5c-9.4-0.3-18.7,0.5-27.9,2.6C445,126.9,432.2,132.7,420.9,140.9z"/>
<path class="st0" d="M173.9,108c-10.1,6.9-18.6,15.8-24.5,25.9c-4.3,7.4-7.3,15.5-8.7,23.6c-9.9,8.3-15.8,19.8-16.3,31.5
	c-14,9.6-23.4,23.3-26.7,38.6c-3.3,15.4,0.1,30.6,9.4,42.9c5.5,7.2,12.7,12.9,21,16.7c0.4,7.5,3,14.6,7.6,20.7
	c6.5,8.5,16.3,13.9,27.2,15.6c1.2,5.2,3.4,10.1,6.8,14.5c0.4,0.6,0.9,1.1,1.3,1.6c0.6,10.3,4.2,20,10.6,28.4
	c14.5,19,40.7,26.7,65.5,20.4c15.1,11.4,38.1,11.9,55.7-0.1c2.3-1.5,4.4-3.2,6.3-5.1c7.7,1.6,15.9,1.3,23.7-0.9
	c14.8,14.4,40.3,16.1,59.5,3.1c9.9-6.7,16.6-16.3,19.2-26.7c8.4-2,16.6-5.5,23.8-10.4c12.1-8.2,21.1-19.8,25.4-32.8
	c3.3-10.1,3.7-20.7,1.2-30.5c3.1-5.5,4.9-11.5,5.3-17.5c0.6-9.2-2-17.9-7.6-25.2c-3.1-4.1-7.1-7.5-11.6-10.2
	c-0.5-7.1-3.1-13.9-7.5-19.8c-4.4-5.7-10.3-10.1-17.1-12.8c0-0.2,0-0.4,0.1-0.7c0.5-7.7-1.6-14.9-6.3-21c-3.3-4.3-7.6-7.7-12.6-10
	c0.1-1.6,0.1-3.2-0.1-4.8c-0.5-7.4-3.2-14.4-7.7-20.3c-5.7-7.5-13.9-12.7-23.6-15.2c-3-0.8-6.1-1.2-9.3-1.4
	c-1.6-8.2-5.1-15.9-10.3-22.7c-17.1-22.4-49.1-29.9-77.6-19.4c-5.5-2.2-11.5-3.4-17.7-3.4c-10.2,0-20,3.1-28.5,8.8
	c-1.6,1.1-3.1,2.2-4.5,3.4c-7.1-0.3-14.2,0.4-21.3,1.9C193.2,97.4,183.1,101.8,173.9,108z"/>
<path class="st1" d="M173.9,108c-10.1,6.9-18.6,15.8-24.5,25.9c-4.3,7.4-7.3,15.5-8.7,23.6l4.1-2.8c5.9-10.1,14.4-19,24.5-25.9
	c9.2-6.2,19.3-10.6,30.1-12.9c7.1-1.5,14.2-2.2,21.3-1.9c1.4-1.2,2.9-2.4,4.5-3.4c8.5-5.7,18.3-8.8,28.5-8.8
	c6.2,0,12.2,1.2,17.7,3.4c28.5-10.6,60.5-3,77.6,19.4c5.2,6.8,8.6,14.5,10.3,22.7c3.2,0.2,6.3,0.6,9.3,1.4
	c9.7,2.4,17.9,7.7,23.6,15.2c4.5,5.9,7.2,12.9,7.7,20.3c0.1,1.6,0.1,3.2,0.1,4.8c5,2.3,9.3,5.7,12.6,10c4.6,6.1,6.8,13.3,6.3,21
	c0,0.2,0,0.4,0,0.6c6.8,2.7,12.7,7.1,17.1,12.9c4.5,5.8,7,12.6,7.6,19.8c4.5,2.6,8.4,6.1,11.6,10.2c4.6,6,7.2,13.1,7.6,20.5
	c2.6-5.1,4.2-10.6,4.6-16.2c0.6-9.2-2-17.9-7.6-25.2c-3.1-4.1-7.1-7.5-11.6-10.2c-0.5-7.1-3.1-13.9-7.5-19.8
	c-4.4-5.7-10.3-10.1-17.1-12.8c0-0.2,0-0.4,0.1-0.7c0.5-7.7-1.6-14.9-6.3-21c-3.3-4.3-7.6-7.7-12.6-10c0.1-1.6,0.1-3.2-0.1-4.8
	c-0.5-7.4-3.2-14.4-7.7-20.3c-5.7-7.5-13.9-12.7-23.6-15.2c-3-0.8-6.1-1.2-9.3-1.4c-1.6-8.2-5.1-15.9-10.3-22.7
	c-17.1-22.4-49.1-29.9-77.6-19.4c-5.5-2.2-11.5-3.4-17.7-3.4c-10.2,0-20,3.1-28.5,8.8c-1.6,1.1-3.1,2.2-4.5,3.4
	c-7.1-0.3-14.2,0.4-21.3,1.9C193.2,97.4,183.1,101.8,173.9,108z"/>
<path class="st0" d="M645.1,179.3c-9.3,11.8-15.5,25.7-17.8,40.1c-1.7,10.6-1.4,21.5,1,32.1c-8.3,13.5-9.9,29.7-4.5,44.2
	c-12.8,16.4-17.8,36.5-14.1,56.5c3.7,20.1,15.7,37.8,33.9,49.8c10.7,7.1,22.6,11.7,35.2,13.7c4.3,9.1,11.2,17.1,20.2,23
	c12.5,8.3,27.7,11.8,42.4,10.3c4.1,6,9.5,11.3,16,15.6c0.8,0.5,1.7,1.1,2.5,1.6c6,12.5,15.5,23.3,27.9,31.5
	c28.1,18.6,65.2,19.5,93.4,3.5c25,9,54.3,2,70.6-18.6c2.1-2.6,3.9-5.4,5.4-8.4c10.6-0.6,20.8-3.7,29.6-9c26.2,12.9,59.3,6.5,77-15.9
	c9.1-11.5,12.7-25.6,10.7-39.3c9.7-5.2,18.2-12.2,24.8-20.6c11.1-14.1,16.6-31.5,15.4-48.9c-0.9-13.6-5.8-26.7-14-38
	c1.1-7.8,0.4-15.8-2.2-23.4c-3.9-11.6-11.7-21.4-22.4-28.6c-6.1-4-12.8-7-19.9-8.7c-4.3-8.6-11-16.1-19.6-21.9
	c-8.5-5.6-18.2-9-28.2-10.2c-0.1-0.3-0.2-0.6-0.3-0.8c-3.2-9.6-9.7-17.9-18.7-23.8c-6.4-4.2-13.6-7-21-8.1c-0.7-2-1.5-3.9-2.5-5.9
	c-4.5-8.9-11.4-16.7-20.2-22.5c-11.1-7.3-24.1-11.1-37.7-10.9c-4.2,0.1-8.4,0.5-12.5,1.4c-6.3-9.6-14.6-18-24.6-24.6
	c-33.1-21.9-77.5-20.6-108.2,1.8c-8.1-0.9-16.4-0.4-24.2,1.7c-12.8,3.4-23.8,10.4-31.6,20.3c-1.4,1.8-2.8,3.7-4,5.7
	c-9.1,2-17.8,5.1-26.1,9.4C664.2,159.9,653.5,168.6,645.1,179.3z"/>
<path class="st1" d="M645.1,179.3c-9.3,11.8-15.5,25.7-17.8,40.1c-1.7,10.6-1.4,21.5,1,32.1l3.8-4.8c2.3-14.4,8.5-28.2,17.9-40
	c8.5-10.7,19.1-19.4,31.6-25.9c8.2-4.3,16.9-7.4,26.1-9.4c1.2-2,2.5-3.9,4-5.7c7.8-9.9,18.7-16.9,31.6-20.3c7.8-2,16.1-2.6,24.2-1.7
	c30.7-22.5,75.1-23.8,108.2-1.8c10,6.6,18.4,15,24.6,24.6c4.1-0.8,8.3-1.3,12.5-1.4c13.6-0.2,26.6,3.5,37.7,10.9
	c8.7,5.8,15.7,13.6,20.2,22.5c0.9,1.9,1.8,3.9,2.5,5.9c7.5,1.2,14.7,3.9,21.1,8.1c9,6,15.4,14.2,18.7,23.9c0.1,0.3,0.2,0.5,0.3,0.8
	c10,1.1,19.7,4.6,28.2,10.2c8.6,5.7,15.4,13.2,19.7,21.9c7.1,1.7,13.8,4.7,19.9,8.7c8.9,5.9,15.8,13.7,20.1,22.8
	c0.7-7.2-0.1-14.5-2.4-21.5c-3.9-11.6-11.7-21.4-22.4-28.6c-6.1-4-12.8-7-19.9-8.7c-4.3-8.6-11-16.1-19.6-21.9
	c-8.5-5.6-18.2-9-28.2-10.2c-0.1-0.3-0.2-0.6-0.3-0.8c-3.2-9.6-9.7-17.9-18.7-23.8c-6.4-4.2-13.6-7-21-8.1c-0.7-2-1.5-3.9-2.5-5.9
	c-4.5-8.9-11.4-16.7-20.2-22.5c-11.1-7.3-24.1-11.1-37.7-10.9c-4.2,0.1-8.4,0.5-12.5,1.4c-6.3-9.6-14.6-18-24.6-24.6
	c-33.1-21.9-77.5-20.6-108.2,1.8c-8.1-0.9-16.4-0.4-24.2,1.7c-12.9,3.4-23.8,10.4-31.6,20.3c-1.4,1.8-2.8,3.7-4,5.7
	c-9.1,2-17.8,5.1-26.1,9.4C664.2,159.9,653.5,168.6,645.1,179.3z"/>
<path class="st0" d="M948.4,210.6c-4.7,20.2-5.8,41.4-3.2,61.5c1.9,14.7,5.9,28.9,11.5,41.5c-3.2,21.9,0.7,43.8,10.5,60.3
	c-6.4,27.9-4.3,56.7,5.8,81.2c10.1,24.5,27,41.6,47.7,48.3c12.2,3.9,24.7,4,37,0.3c7,9.7,16,16.7,26.2,20
	c14.3,4.6,29.5,1.6,42.5-7.8c5.8,5.8,12.5,10.1,19.9,12.4c0.9,0.3,1.9,0.6,2.8,0.8c9.7,13.4,22.1,22.8,36.2,27.3
	c32.1,10.3,66.5-7.1,87.3-42.3c26-0.7,50.7-24.6,58.9-59.7c1.1-4.5,1.8-9.1,2.2-13.7c9.6-6,18-15.2,24.3-26.6
	c28.4,3.8,56.8-21.1,65.7-59.4c4.6-19.7,3.2-40-3.2-56.8c7.2-11.7,12.7-25.2,16-39.5c5.6-24,4.9-49.6-2-71.8
	c-5.3-17.3-14.2-32.1-25.6-42.8c-1.6-10.8-4.9-20.9-9.8-29.5c-7.4-13.2-17.9-22.3-30.2-26.2c-7-2.2-14.1-2.7-21.2-1.5
	c-6.8-9.2-15.5-15.6-25.4-18.8c-9.7-3.1-19.8-2.8-29.4,0.8c-0.2-0.3-0.3-0.6-0.5-1c-6.2-11-14.9-18.6-25.1-21.9
	c-7.3-2.3-14.8-2.3-22.1-0.1c-1.3-2.2-2.7-4.4-4.3-6.4c-7.1-9.5-16.1-16.2-26.1-19.4c-12.6-4.1-25.9-2.5-38.4,4.6
	c-3.8,2.2-7.5,4.9-11,8.1c-8.9-9.4-19.4-16.2-30.9-19.9c-37.8-12.2-78.3,11.8-99.2,56.6c-7.8,2.8-15.2,7.7-21.8,14.4
	c-10.7,10.9-18.5,25.6-22.4,42.5c-0.7,3.1-1.3,6.3-1.8,9.5c-7.7,7.2-14.7,15.7-20.9,25.4C959.5,175.6,952.6,192.3,948.4,210.6z"/>
<path class="st1" d="M948.4,210.6c-4.7,20.2-5.8,41.4-3.2,61.5c1.9,14.7,5.9,28.9,11.5,41.5l1.9-8.2c-2.6-20-1.5-41.3,3.2-61.4
	c4.2-18.3,11.2-35,20.5-49.8c6.2-9.7,13.2-18.2,20.9-25.4c0.4-3.2,1-6.4,1.8-9.5c3.9-16.9,11.7-31.6,22.4-42.4
	c6.5-6.6,14-11.5,21.8-14.4c20.8-44.8,61.3-68.8,99.2-56.6c11.4,3.7,21.9,10.5,30.8,19.9c3.5-3.2,7.2-5.9,11-8.1
	c12.4-7.1,25.7-8.7,38.3-4.6c10,3.2,19,9.9,26.1,19.4c1.5,2,2.9,4.2,4.2,6.4c7.3-2.2,14.8-2.2,22.1,0.1
	c10.2,3.3,18.9,10.9,25.1,21.9c0.2,0.3,0.4,0.6,0.5,0.9c9.6-3.5,19.7-3.9,29.4-0.7c9.9,3.2,18.6,9.7,25.4,18.8
	c7.1-1.3,14.3-0.8,21.2,1.5c10.2,3.3,19.1,10.1,26.1,19.8c-1.7-9.8-4.9-19-9.4-27c-7.4-13.2-17.9-22.3-30.2-26.2
	c-7-2.2-14.1-2.7-21.2-1.5c-6.8-9.2-15.5-15.6-25.4-18.8c-9.7-3.1-19.8-2.8-29.4,0.8c-0.2-0.3-0.3-0.6-0.5-1
	c-6.2-11-14.9-18.6-25.1-21.9c-7.3-2.3-14.8-2.3-22.1-0.1c-1.3-2.2-2.7-4.4-4.3-6.4c-7.1-9.5-16.1-16.2-26.1-19.4
	c-12.7-4.1-25.9-2.5-38.4,4.6c-3.8,2.2-7.5,4.9-11,8.1c-8.9-9.4-19.4-16.2-30.9-19.9c-37.8-12.2-78.3,11.8-99.2,56.6
	c-7.8,2.8-15.2,7.7-21.8,14.4c-10.7,10.9-18.5,25.6-22.4,42.5c-0.7,3.1-1.3,6.3-1.8,9.5c-7.7,7.2-14.7,15.7-20.9,25.4
	C959.5,175.6,952.6,192.3,948.4,210.6z"/>
<path class="st0" d="M192.6,158c0.4,13.7-2.9,27.8-9.5,40.7c-4.8,9.5-11.4,18.3-19.4,26c-1.4,14.7-9.6,28.7-22.2,38.4
	c0.4,19-7.4,37.7-22,52.7c-14.5,15-34.1,24.4-55.1,26.5c-12.3,1.3-24.3,0-35.2-3.8c-8.6,5.6-18.6,9.3-29,10.3
	c-14.5,1.5-28.3-2.2-38.8-9.7c-6.7,3.2-13.9,5.3-21.4,6c-0.9,0.1-1.9,0.2-2.8,0.2c-11.9,7.8-25.6,12.6-39.9,14
	c-32.5,3.3-61.7-11.9-74.3-37.1c-24.6-3.3-43.2-21.6-43.8-45.5c-0.1-3.1,0.1-6.2,0.7-9.2c-7.9-5-14-11.9-17.6-20.1
	c-27.7-0.6-49.6-20-50.3-46c-0.3-13.4,5-26.6,14.6-37c-4.5-8.4-6.9-17.9-7.2-27.7c-0.4-16.4,5.4-33.1,16.5-46.9
	c8.6-10.8,20-19.5,33-25.3c3.7-6.9,8.9-13.2,15.3-18.3c9.7-7.9,21.5-12.7,34-14c7.1-0.7,13.9-0.3,20.4,1.3
	c8.3-5.3,17.9-8.6,27.9-9.6c9.8-1,19.3,0.3,27.7,3.7c0.2-0.2,0.5-0.4,0.7-0.6c8.1-6.6,17.9-10.6,28.3-11.7c7.4-0.8,14.5,0.1,21,2.3
	c1.7-1.3,3.5-2.6,5.3-3.7c8.6-5.5,18.6-8.9,28.7-9.9C-9,2.7,3.3,5.2,13.6,11.2c3.2,1.9,6.2,4,8.8,6.5c10.4-5.2,21.8-8.5,33.3-9.7
	c38.4-3.9,71.9,16.2,82.6,47.8c6.8,2.7,12.9,6.7,17.7,11.8c8,8.3,12.3,18.8,12.6,30.3c0.1,2.1,0,4.3-0.3,6.4
	c5.9,5.5,10.8,11.9,14.7,18.9C189.1,133.8,192.3,145.6,192.6,158z"/>
<path class="st1" d="M192.6,158c0.4,13.7-2.9,27.8-9.5,40.7c-4.8,9.5-11.4,18.3-19.4,26l-0.1-5.6c6.5-12.9,9.8-26.9,9.5-40.7
	c-0.3-12.5-3.5-24.2-9.4-34.9c-3.9-7-8.8-13.3-14.7-18.9c0.2-2.1,0.3-4.3,0.3-6.4c-0.3-11.5-4.7-22-12.6-30.3
	c-4.9-5-10.9-9.1-17.7-11.8c-10.7-31.7-44.3-51.7-82.6-47.8c-11.6,1.2-22.9,4.5-33.3,9.7c-2.7-2.4-5.6-4.6-8.8-6.5
	c-10.4-6-22.6-8.5-35.5-7.2c-10.1,1-20,4.5-28.7,9.9c-1.8,1.2-3.6,2.4-5.3,3.8c-6.5-2.2-13.6-3.1-21-2.3
	c-10.4,1.1-20.2,5.1-28.3,11.7c-0.2,0.2-0.5,0.4-0.7,0.6c-8.4-3.3-17.9-4.7-27.7-3.6c-10,1-19.6,4.3-27.9,9.6
	c-6.5-1.6-13.4-2.1-20.4-1.3c-10.3,1.1-20.2,4.6-28.8,10.2c3.6-6.2,8.5-12,14.4-16.7c9.7-7.9,21.5-12.7,34-14
	c7.1-0.7,13.9-0.3,20.4,1.3c8.3-5.3,17.9-8.6,27.9-9.6c9.8-1,19.3,0.3,27.7,3.7c0.2-0.2,0.5-0.4,0.7-0.6
	c8.1-6.6,17.9-10.6,28.3-11.7c7.4-0.8,14.5,0.1,21,2.3c1.7-1.3,3.5-2.6,5.3-3.7c8.6-5.5,18.6-8.9,28.7-9.9C-9,2.7,3.3,5.2,13.6,11.2
	c3.2,1.9,6.2,4,8.8,6.5c10.4-5.2,21.8-8.5,33.3-9.7c38.4-3.9,71.9,16.2,82.6,47.8c6.8,2.7,12.9,6.7,17.7,11.8
	c8,8.3,12.3,18.8,12.6,30.3c0.1,2.1,0,4.3-0.3,6.4c5.9,5.5,10.8,11.9,14.7,18.9C189.1,133.8,192.3,145.6,192.6,158z"/>
</svg>
