<svg width="92" height="90" viewBox="0 0 92 90" fill="none" xmlns="http://www.w3.org/2000/svg">
<path d="M22.9661 24.8638C23.4858 24.8638 24.0124 24.77 24.5122 24.5714C24.5642 24.5511 27.7977 23.2704 30.8846 22.082C28.1265 21.4399 25.804 19.9301 24.3517 17.9221C22.7475 18.5505 21.5441 19.0268 21.4157 19.0777C19.6051 19.7948 18.8312 21.6064 19.6858 23.1235C20.3044 24.2202 21.6083 24.8638 22.9661 24.8638Z" fill="#A0C4E2"/>
<path d="M63.0928 19.2819C66.59 20.6273 70.3007 22.0964 70.3588 22.1197C70.9202 22.3415 71.5118 22.4469 72.0949 22.4469C73.6184 22.4469 75.0776 21.7255 75.7708 20.4942C76.7295 18.7925 75.8619 16.7605 73.8335 15.9569C73.6826 15.8972 72.2111 15.314 70.2807 14.5598C68.6957 16.8114 66.1397 18.5234 63.0928 19.2819Z" fill="#97A95E"/>
<path d="M59.7721 18.8884C65.9944 18.8884 71.0386 14.6601 71.0386 9.44419C71.0386 4.22831 65.9944 0 59.7721 0C53.5498 0 48.5056 4.22831 48.5056 9.44419C48.5056 14.6601 53.5498 18.8884 59.7721 18.8884Z" fill="#A0C4E2"/>
<path d="M32.6017 18.8884C38.824 18.8884 43.8682 14.6601 43.8682 9.44419C43.8682 4.22831 38.824 0 32.6017 0C26.3794 0 21.3352 4.22831 21.3352 9.44419C21.3352 14.6601 26.3794 18.8884 32.6017 18.8884Z" fill="#97A95E"/>
<path d="M34.7463 19.8251L32.4741 21.2862L30.751 19.9676C26.9883 21.4054 22.4621 23.1974 22.4014 23.2221C21.7429 23.4825 21.0427 23.6148 20.3191 23.6148C19.5175 23.6148 18.7462 23.4388 18.0582 23.1356L18.0417 23.1501C13.6864 20.2222 10.0573 15.1525 8.78457 12.97C7.72871 11.1474 5.11207 10.3889 2.93876 11.2733C0.766319 12.1576 -0.14031 14.3517 0.915544 16.1735C1.6877 17.5044 8.75941 29.2591 19.4307 32.0583C20.045 32.2198 20.6618 32.339 21.2787 32.435C21.349 34.6895 21.4774 39.0386 21.4774 40.4967C21.4774 44.2188 22.3918 45.2457 22.3918 45.2457L22.3962 49.7831H22.4768C22.4734 49.8413 22.456 49.8965 22.456 49.9562L22.4586 85.0661C22.4586 87.4595 24.7725 89.3991 27.6277 89.3991C30.4821 89.3991 32.7968 87.4595 32.7968 85.0661L32.7933 49.9547C32.7933 49.8951 32.7751 49.8398 32.7725 49.7816H33.5507C33.5473 49.8398 33.5299 49.8951 33.5299 49.9547L33.5273 85.0639C33.5273 87.4573 35.8412 89.3969 38.6964 89.3969C41.5508 89.3969 43.8655 87.4573 43.8655 85.0639L43.869 49.9547C43.869 49.8951 43.8507 49.8398 43.849 49.7802H43.8629V45.7882C43.8629 45.6435 43.8516 45.5003 43.8369 45.3599C44.3834 44.0334 44.6767 42.5789 44.6767 41.0516V22.9414C42.8174 23.0665 37.2198 19.6607 36.5326 19.3989C36.0754 19.508 35.2165 19.7596 34.7463 19.8251Z" fill="#97A95E"/>
<path d="M88.8846 11.599C86.7139 10.7125 84.0964 11.4696 83.038 13.2863C81.8016 15.407 78.3504 20.2498 74.1703 23.2104C73.4867 23.5094 72.7223 23.6832 71.9259 23.6832C71.2049 23.6832 70.5013 23.5508 69.8446 23.2904C69.7838 23.2657 65.2585 21.4738 61.4949 20.036L59.771 21.3552L57.4996 19.5618C57.0285 19.4956 56.567 19.4112 56.1132 19.3014C55.1745 19.6585 54.0562 20.1458 52.8997 20.7181C52.9847 20.3007 52.9812 19.8789 52.8815 19.4687C53.396 19.2178 53.9009 18.9865 54.3972 18.7676C51.7441 17.7516 49.5977 15.98 48.3344 13.7808C47.6352 14.1372 46.9489 14.5015 46.2939 14.8724C45.3378 14.4128 44.4156 13.975 43.6902 13.631C42.4696 15.8506 40.3474 17.6462 37.7178 18.6963C39.8703 19.636 45.107 22.0672 46.5594 22.9268C46.8778 23.1144 47.2213 23.2432 47.5727 23.345V41.1221C47.5727 42.6494 47.8659 44.1039 48.4108 45.4304C48.3952 45.5715 48.3856 45.714 48.3856 45.8588V49.8514H48.4177C48.416 49.9089 48.3995 49.9634 48.3995 50.0216L48.4004 85.13C48.4004 87.5242 50.7151 89.463 53.5695 89.463C56.4247 89.463 58.7386 87.5234 58.7386 85.1293L58.7377 50.0201C58.7377 49.9619 58.7195 49.9089 58.7186 49.8514H59.4951C59.4934 49.9089 59.4751 49.9619 59.4751 50.0201L59.4725 85.13C59.4725 87.5234 61.7864 89.463 64.6416 89.4638C67.496 89.4638 69.8107 87.5242 69.8107 85.1307L69.8142 50.0216C69.8142 49.9619 69.796 49.9089 69.7942 49.8514H69.8541L69.8576 45.3148C69.8576 45.3148 70.7729 44.2871 70.7729 40.565C70.7729 39.1454 70.8952 34.9877 70.9663 32.6881C71.4426 32.603 71.919 32.5048 72.3944 32.3805C83.0657 29.5798 90.1366 17.8265 90.9087 16.4949C91.9576 14.6753 91.0536 12.4856 88.8846 11.599Z" fill="#A0C4E2"/>
</svg>
