<svg width="57" height="57" viewBox="0 0 57 57" fill="none" xmlns="http://www.w3.org/2000/svg">
<path d="M28.5 33.25C31.7799 33.25 34.7486 31.92 36.898 29.7706C39.045 27.6236 40.375 24.6549 40.375 21.375C40.375 18.0951 39.045 15.1264 36.898 12.9794C34.7486 10.83 31.7799 9.5 28.5 9.5C25.2201 9.5 22.2514 10.83 20.102 12.9794C17.955 15.1264 16.625 18.0951 16.625 21.375C16.625 24.6549 17.955 27.6236 20.102 29.7706C22.2514 31.92 25.2201 33.25 28.5 33.25ZM47.5 35.625C49.1387 35.625 50.6231 34.9624 51.699 33.8889C52.7749 32.8154 53.4375 31.331 53.4375 29.6875C53.4375 28.0487 52.7749 26.5644 51.699 25.4885C50.6231 24.4126 49.1387 23.75 47.5 23.75C45.8589 23.75 44.3745 24.4126 43.2986 25.4885C42.2251 26.5644 41.5625 28.0487 41.5625 29.6875C41.5625 31.3286 42.2251 32.813 43.2986 33.8889C44.3721 34.9648 45.8589 35.625 47.5 35.625ZM47.5 37.0263C44.3389 37.0263 41.9615 37.9905 40.5721 39.3253C37.924 37.1474 33.7369 35.625 28.5 35.625C23.1182 35.625 19.0119 37.164 16.4065 39.3395C14.991 37.9976 12.5875 37.0263 9.5 37.0263C4.3035 37.0263 1.1875 39.615 1.1875 42.2085C1.1875 43.5029 4.3035 44.802 9.5 44.802C10.9345 44.802 12.2218 44.6809 13.3546 44.4861L13.2596 45.1274C13.2596 47.5024 18.9739 49.8774 28.5 49.8774C37.4347 49.8774 43.7404 47.5024 43.7404 45.1274L43.6929 44.5218C44.7925 44.6951 46.056 44.802 47.5 44.802C52.3711 44.802 55.8125 43.5029 55.8125 42.2085C55.8125 39.615 52.5516 37.0263 47.5 37.0263ZM9.5 35.625C11.1388 35.625 12.6231 34.9624 13.699 33.8865C14.7749 32.8106 15.4375 31.3263 15.4375 29.6875C15.4375 28.0511 14.7749 26.5668 13.699 25.4885C12.6231 24.415 11.1388 23.75 9.5 23.75C7.85887 23.75 6.3745 24.415 5.29862 25.4885C4.22512 26.5668 3.5625 28.0511 3.5625 29.6875C3.5625 31.3263 4.22512 32.8106 5.29862 33.8865C6.3745 34.9624 7.85887 35.625 9.5 35.625Z" fill="#FAE499"/>
</svg>
