<svg width="66" height="64" viewBox="0 0 66 64" fill="none" xmlns="http://www.w3.org/2000/svg">
<path d="M45.3691 54.1191L42.795 53.1406L52.3784 29.3867C52.8195 28.291 52.2213 27.0547 51.0672 26.6914L34.3054 21.3828C33.2298 21.043 32.0696 21.582 31.6708 22.6074L23.3201 44.0293L19.3623 42.582L31.0847 12.5117C31.4775 11.4981 32.6195 10.959 33.689 11.2754L58.7653 18.7871C59.9376 19.1387 60.5599 20.3809 60.1128 21.4941L47.2786 53.3106C46.9764 54.043 46.1244 54.4063 45.3691 54.1191Z" fill="#FAE499"/>
<path d="M7.19824 41.1348C7.19824 43.2793 8.07677 45.336 9.64057 46.8524C11.2044 48.3688 13.3253 49.2207 15.5369 49.2207C17.7484 49.2207 19.8694 48.3688 21.4332 46.8524C22.997 45.336 23.8755 43.2793 23.8755 41.1348C23.8755 38.9902 22.997 36.9336 21.4332 35.4171C19.8694 33.9007 17.7484 33.0488 15.5369 33.0488C13.3253 33.0488 11.2044 33.9007 9.64057 35.4171C8.07677 36.9336 7.19824 38.9902 7.19824 41.1348Z" fill="#FAE499"/>
<path d="M31.2598 50.1816C31.2598 52.3262 32.1383 54.3829 33.7021 55.8993C35.2659 57.4157 37.3868 58.2676 39.5984 58.2676C41.8099 58.2676 43.9309 57.4157 45.4947 55.8993C47.0585 54.3829 47.937 52.3262 47.937 50.1816C47.937 48.0371 47.0585 45.9804 45.4947 44.464C43.9309 42.9476 41.8099 42.0957 39.5984 42.0957C37.3868 42.0957 35.2659 42.9476 33.7021 44.464C32.1383 45.9804 31.2598 48.0371 31.2598 50.1816Z" fill="#FAE499"/>
<path d="M15.8897 23.7104L9.1801 7.41667C8.74182 6.36042 9.33479 5.16667 10.4563 4.83542L17.4108 2.77917C18.3389 2.50417 19.325 2.93542 19.7311 3.79167L20.5819 5.59167C21.0653 6.61042 20.5239 7.80417 19.4281 8.15417L14.678 9.67292C14.2332 9.81667 14.0012 10.2917 14.1752 10.7104L18.7127 21.9354C18.8481 22.2729 18.6805 22.6479 18.3324 22.7854L15.8897 23.7104Z" fill="#EC5564"/>
<path d="M8.16797 23.7104C8.16797 24.4064 8.30934 25.0956 8.58402 25.7386C8.85869 26.3816 9.26128 26.9659 9.76881 27.4581C10.2763 27.9502 10.8789 28.3406 11.542 28.607C12.2051 28.8733 12.9158 29.0104 13.6336 29.0104C14.3513 29.0104 15.0621 28.8733 15.7252 28.607C16.3883 28.3406 16.9908 27.9502 17.4984 27.4581C18.0059 26.9659 18.4085 26.3816 18.6832 25.7386C18.9578 25.0956 19.0992 24.4064 19.0992 23.7104C19.0992 22.3048 18.5234 20.9567 17.4984 19.9627C16.4734 18.9688 15.0832 18.4104 13.6336 18.4104C12.184 18.4104 10.7938 18.9688 9.76881 19.9627C8.74381 20.9567 8.16797 22.3048 8.16797 23.7104Z" fill="#EC5564"/>
</svg>
