<svg width="60" height="50" viewBox="0 0 60 50" fill="none" xmlns="http://www.w3.org/2000/svg">
<path d="M31.6594 10.106C34.005 11.0901 36.7082 9.98659 37.6933 7.63722C38.6783 5.28878 37.572 2.58855 35.2254 1.6044C32.876 0.618389 30.1758 1.72487 29.1906 4.07132C28.2056 6.41882 29.3111 9.12187 31.6594 10.106Z" fill="#A0C4E2"/>
<path d="M41.3081 9.38333C42.3072 9.60727 43.298 8.97692 43.5201 7.97766C43.743 6.97946 43.1136 5.98876 42.1154 5.7647C41.1172 5.54274 40.1245 6.17309 39.9024 7.17235C39.6785 8.16962 40.308 9.16126 41.3081 9.38333Z" fill="#EC5564"/>
<path d="M59.4688 45.2382L53.2882 43.6801L46.5336 9.76263L49.6789 10.3206L50.0412 8.69845L43.9876 7.06591L43.5059 9.22521L45.0479 9.49908L45.0574 9.54525C44.4129 9.52638 43.7919 9.89236 43.5229 10.521L39.6172 16.7654L35.4728 14.306L12.7132 0.758532C11.8853 0.21279 10.773 0.441423 10.2274 1.26935C9.68273 2.09646 9.91125 3.20951 10.7393 3.7542L22.4286 12.7659C22.7617 13.0002 22.8332 13.4989 22.5321 14.0672C22.0795 14.9195 0.586289 43.8814 0.586289 43.8814C-0.268945 44.8487 -0.177774 46.326 0.789492 47.182C1.7577 48.0372 3.23672 47.9461 4.09207 46.9779L20.4585 31.6548C20.927 31.1863 21.1876 30.9256 22.4371 31.7574L29.693 35.9236L30.457 46.5592C30.4636 47.7221 31.4129 48.6583 32.5748 48.6498C33.7378 48.6423 34.674 47.6948 34.6673 46.5328L35.3372 34.7973C35.4002 33.594 35.0878 32.8506 34.1723 31.9936L27.3313 25.5118C27.3313 25.5118 31.7872 20.9092 32.5597 20.2429C32.9135 19.9353 33.2409 19.384 33.8177 19.5769L39.3049 21.7616C40.7491 22.4662 41.5207 21.6063 42.2695 20.9213L45.8016 13.2842L51.9172 44.001L47.1621 48.3138C46.8751 48.5754 46.8536 49.0204 47.1142 49.3065C47.2525 49.4599 47.4435 49.5379 47.6364 49.5379C47.8038 49.5379 47.9732 49.4777 48.1068 49.3555L52.8779 45.0275L59.1244 46.6006C59.1827 46.6156 59.2402 46.6223 59.2976 46.6223C59.6109 46.6223 59.8987 46.4097 59.9787 46.0917C60.0729 45.7142 59.8451 45.3322 59.4688 45.2382Z" fill="#A0C4E2"/>
</svg>
