<svg width="246" height="241" viewBox="0 0 246 241" fill="none" xmlns="http://www.w3.org/2000/svg">
<g clip-path="url(#clip0_27_138)">
<path d="M19.8165 120.194C19.8165 120.194 33.8224 126.53 30.4267 132.58C16.6662 157.085 25.6252 178.581 121.104 177.797C198.059 177.159 223.624 161.071 233.262 154.204C233.266 154.204 233.269 154.204 233.272 154.203C234.103 153.348 235.256 152.771 236.557 152.704C239.244 152.565 241.532 154.587 241.668 157.226C242.696 170.384 228.572 207.547 215.792 220.664L50.1631 229.235C50.1631 229.235 15.0905 211.022 8.63207 170.181C3.54482 138.002 19.8165 120.194 19.8165 120.194Z" fill="#965353"/>
<path opacity="0.1" d="M223.224 210.721C220.774 214.697 218.258 218.13 215.792 220.665L50.1633 229.236C50.1633 229.236 44.6339 226.359 37.5474 220.329L223.224 210.721Z" fill="black"/>
<path d="M25.6875 144.722C23.7832 138.998 25.1454 132.584 28.4426 125.877C30.4773 127.907 31.7284 130.263 30.4259 132.58C28.0835 136.746 26.4005 140.822 25.6875 144.722Z" fill="black"/>
<path d="M122.131 15.3256C124.818 15.1866 127.106 17.2028 127.242 19.8405L135.315 175.843L125.587 176.347L117.514 20.3439C117.377 17.7062 119.444 15.4647 122.131 15.3256Z" fill="#7F4545"/>
<path d="M180.397 198.647C188.447 198.231 194.661 191.471 194.254 183.598C193.846 175.712 186.968 169.644 178.918 170.06C170.872 170.477 164.653 177.222 165.061 185.109C165.469 192.981 172.351 199.064 180.397 198.647Z" fill="#F5BA45"/>
<path d="M131.745 201.095C139.791 200.679 146.009 193.919 145.602 186.046C145.193 178.16 138.312 172.091 130.266 172.508C122.219 172.924 116 179.67 116.408 187.557C116.816 195.429 123.699 201.511 131.745 201.095Z" fill="#F5BA45"/>
<path d="M83.0921 203.683C91.1458 203.266 97.3556 196.506 96.9482 188.633C96.54 180.747 89.6665 174.679 81.6128 175.096C73.5732 175.512 67.3559 182.258 67.764 190.144C68.171 198.017 75.0526 204.099 83.0921 203.683Z" fill="#F5BA45"/>
<path d="M178.672 165.3C189.419 164.744 198.573 172.822 199.118 183.346C199.663 193.871 191.391 202.85 180.644 203.407C169.896 203.963 160.742 195.885 160.197 185.36C159.652 174.836 167.924 165.857 178.672 165.3ZM180.15 193.873C185.517 193.596 189.661 189.098 189.389 183.85C189.117 178.588 184.531 174.542 179.164 174.82C173.801 175.097 169.657 179.595 169.929 184.857C170.201 190.105 174.787 194.151 180.15 193.873Z" fill="#FECD57"/>
<path d="M130.019 167.748C140.767 167.192 149.921 175.27 150.465 185.795C151.01 196.319 142.738 205.298 131.991 205.854C121.244 206.411 112.086 198.333 111.541 187.809C110.996 177.285 119.272 168.304 130.019 167.748ZM131.498 196.321C136.861 196.044 141.005 191.546 140.733 186.298C140.461 181.036 135.875 176.99 130.512 177.268C125.144 177.546 121.001 182.043 121.273 187.305C121.545 192.553 126.13 196.599 131.498 196.321Z" fill="#FECD57"/>
<path d="M81.3664 170.336C92.1145 169.78 101.271 177.857 101.816 188.381C102.361 198.907 94.0865 207.886 83.3384 208.442C72.5912 208.998 63.4407 200.92 62.896 190.396C62.3514 179.871 70.6192 170.892 81.3664 170.336ZM82.845 198.909C88.2189 198.631 92.3599 194.133 92.0883 188.885C91.816 183.623 87.2329 179.577 81.859 179.855C76.4993 180.133 72.3592 184.63 72.6315 189.892C72.9031 195.14 77.4853 199.186 82.845 198.909Z" fill="#FECD57"/>
<path d="M15.9002 130.69C16.3088 138.587 23.1826 144.641 31.2362 144.225C39.3036 143.807 45.5011 137.076 45.0925 129.18C44.684 121.286 37.824 115.224 29.7571 115.642C21.703 116.058 15.4917 122.797 15.9002 130.69Z" fill="#A85D5D"/>
<path d="M77.4882 189.571C77.6239 192.195 79.9153 194.218 82.5951 194.079C85.2891 193.939 87.3599 191.691 87.2241 189.067C87.0876 186.429 84.7962 184.406 82.1018 184.545C79.4219 184.684 77.3516 186.933 77.4882 189.571Z" fill="#FECD57"/>
<path d="M126.141 187.053C126.277 189.677 128.564 191.7 131.252 191.561C133.938 191.422 136.005 189.174 135.869 186.55C135.733 183.912 133.445 181.888 130.758 182.027C128.071 182.167 126.004 184.415 126.141 187.053Z" fill="#FECD57"/>
<path d="M174.794 184.605C174.93 187.23 177.217 189.253 179.904 189.114C182.591 188.975 184.658 186.726 184.522 184.102C184.385 181.464 182.098 179.455 179.411 179.594C176.724 179.733 174.657 181.967 174.794 184.605Z" fill="#FECD57"/>
<path opacity="0.1" d="M118.008 29.869L127.736 29.3655L127.982 34.125L118.254 34.6284L118.008 29.869Z" fill="black"/>
<path opacity="0.1" d="M124.325 151.934L134.053 151.431L134.3 156.205L124.572 156.708L124.325 151.934Z" fill="black"/>
<path d="M53.6414 70.6687C57.8095 57.7238 65.0639 46.7045 75.1991 37.9019C76.027 37.1872 77.0766 36.7616 78.1813 36.7044L196.091 30.6027C197.944 30.5068 199.686 31.4525 200.59 33.0361C201.494 34.6129 201.402 36.5632 200.354 38.0659C185.574 59.1525 180.444 83.9596 185.103 111.787C188.625 132.833 196.735 147.795 196.814 147.945C197.709 149.564 197.566 151.558 196.442 153.044C195.563 154.21 194.209 154.909 192.773 154.983C192.374 155.004 191.972 154.969 191.571 154.892C174.763 151.633 155.408 150.536 134.052 151.641C97.561 153.529 67.5782 161.295 67.281 161.365C65.9204 161.73 64.4724 161.483 63.3036 160.718C62.2382 160.017 61.5104 158.935 61.26 157.703C61.1502 157.358 60.8073 156.396 60.4916 155.545C57.8303 148.167 50.7568 128.586 49.5597 106.009C48.8702 93.0916 50.249 81.2011 53.6414 70.6687Z" fill="#EC5564"/>
<g opacity="0.2">
<path d="M53.6415 70.6687C57.8097 57.7238 65.064 46.7045 75.1992 37.9018C76.0271 37.1872 77.0767 36.7616 78.1815 36.7044L87.9102 36.2009C86.8045 36.2581 85.7553 36.6837 84.9347 37.398C74.7922 46.2011 67.5374 57.2204 63.3702 70.1653C59.9778 80.6976 58.6063 92.5882 59.289 105.506C60.4861 128.083 67.5595 147.664 70.2272 155.041C70.5293 155.894 70.8786 156.855 70.9902 157.199C71.2278 158.335 71.8795 159.35 72.8239 160.057C69.3272 160.84 67.3593 161.348 67.2816 161.365C65.921 161.73 64.473 161.483 63.3042 160.718C62.2389 160.017 61.511 158.935 61.2606 157.703C61.1509 157.358 60.8079 156.396 60.4922 155.545C57.8309 148.167 50.7575 128.586 49.5603 106.009C48.8703 93.0915 50.2491 81.2011 53.6415 70.6687Z" fill="white"/>
</g>
</g>
<defs>
<clipPath id="clip0_27_138">
<rect width="233.85" height="229" fill="white" transform="matrix(-0.998664 0.0516803 0.0516803 0.998664 233.537 0)"/>
</clipPath>
</defs>
</svg>
