<svg width="122" height="119" viewBox="0 0 122 119" fill="none" xmlns="http://www.w3.org/2000/svg">
<path d="M82.0686 57.4473L65.283 108.943L74.644 111.211L94.7264 110.017L93.7534 76.763L82.0686 57.4473Z" fill="#625353"/>
<path d="M34.6208 40.9915C33.3739 41.9077 30.3606 52.4402 23.0588 66.8599C15.757 81.2796 6.38647 100.364 6.38647 100.364C6.38647 100.364 7.48222 101.91 21.3491 106.806C35.2159 111.702 46.674 113.849 46.674 113.849C46.674 113.849 77.5627 66.7396 77.8083 65.6752C78.0539 64.6016 82.9848 44.962 82.9848 44.962C82.9848 44.962 63.3275 43.62 54.8071 42.9073C46.2867 42.1946 36.0755 39.9179 34.6208 40.9915Z" fill="#CE603A"/>
<path d="M105.145 109.915L115.517 108.185C115.517 108.185 105.948 88.5727 100.715 78.6789C95.4819 68.785 86.4515 47.7848 85.6014 46.2392C84.7512 44.6936 81.2184 43.9717 79.6409 46.7205C78.0634 49.4693 64.8955 77.7811 62.4207 82.3069C59.6341 87.3973 45.7861 112.47 45.6633 113.784C45.5405 115.098 68.9763 112.923 68.9763 112.923L75.0217 95.4771L82.3236 64.4813L83.5421 64.7219L89.3798 89.998L105.145 109.915Z" fill="#EC5F32"/>
<path d="M75.7963 112.1C75.5884 113.303 69.4107 114.349 65.8968 114.423C62.3734 114.506 56.0728 114.747 55.336 113.941C54.5993 113.136 63.2708 105.602 68.8439 95.7363C74.4077 85.8702 77.6855 79.0583 78.4978 76.328C79.3197 73.5977 80.9538 65.4253 81.6056 64.0555C82.2574 62.6858 83.5704 62.9357 83.9766 64.2129C84.3827 65.4994 88.6429 81.2981 90.1165 85.065C91.5901 88.8319 97.6451 96.6896 99.4493 99.1792C101.253 101.669 110.171 108.296 110.331 108.934C110.492 109.573 104.815 111.526 100.951 111.961C98.1835 112.266 91.7318 111.794 91.2406 110.989C90.7494 110.184 87.4149 88.8318 86.187 81.696C84.959 74.5602 82.8336 65.0181 82.8336 65.0181C82.8336 65.0181 78.0066 87.9526 77.3454 94.0518C76.6936 100.151 76.1174 110.174 75.7963 112.1Z" fill="#FAE499"/>
<path d="M4.82788 91.1828C4.82788 91.1828 5.51744 90.4794 6.821 90.3961C8.12456 90.322 9.27698 91.0995 9.27698 91.0995L10.1177 102.965C10.1177 102.965 9.1164 103.825 7.88841 103.825C6.66042 103.825 5.508 103.196 5.508 103.196L4.82788 91.1828Z" fill="#625353"/>
<path d="M40.0239 103.113C40.0239 103.113 41.0913 102.233 42.7255 102.233C44.3597 102.233 45.5877 103.039 45.5877 103.039L45.6727 115.07C45.6727 115.07 44.3597 115.792 43.3773 115.792C42.3949 115.792 40.8363 115.311 40.8363 115.311L40.0239 103.113Z" fill="#625353"/>
<path d="M113.269 97.8279C113.269 97.8279 114.147 96.8283 115.706 96.9024C117.265 96.9764 118.115 97.5039 118.115 97.5039L117.378 109.85C117.378 109.85 116.802 110.656 115.413 110.656C114.025 110.656 112.797 110.017 112.797 110.017L113.269 97.8279Z" fill="#625353"/>
</svg>
