<svg width="108" height="90" viewBox="0 0 108 90" fill="none" xmlns="http://www.w3.org/2000/svg">
<path d="M26.6931 0L31.9851 19.277L0.258647 17.0929C0.167135 17.0929 0.09199 16.8596 0 16.8669L26.6931 0ZM107.043 17.5439H75.2446L80.4175 0L107.043 17.5439Z" fill="#FAE499"/>
<path d="M75.1253 19.277H31.9849L26.6929 0H80.4173L75.1253 19.277Z" fill="#FAE499"/>
<path d="M75.1253 19.277H31.9849L26.6929 0H80.4173L75.1253 19.277Z" fill="#A0C4E2"/>
<path d="M75.2447 17.5438L53.9489 89.9384L32.0591 17.0928L75.2447 17.5438Z" fill="#FAE499"/>
<path d="M32.0591 17.0928L53.9489 89.9384L0.258789 17.0928H32.0591Z" fill="#FAE499"/>
<path d="M32.0591 17.0928L53.9489 89.9384L0.258789 17.0928H32.0591Z" fill="#A0C4E2"/>
<path d="M75.244 17.5439H107.042L53.9482 89.9385L75.244 17.5439Z" fill="#FAE499"/>
<path d="M75.244 17.5439H107.042L53.9482 89.9385L75.244 17.5439Z" fill="#A0C4E2"/>
</svg>
